<svg id="Layer_1" data-name="Layer 1" xmlns="http://www.w3.org/2000/svg" viewBox="0 0 539.09 95.28"><defs><style>.cls-1{opacity:0.3;}.cls-2{fill:#939393;}</style></defs><g class="cls-1"><path class="cls-2" d="M32.93,101.79H92.76v14.08H49.71v27.71H89.05v13.63H49.71v38.23H32.93Z" transform="translate(-32.93 -101.79)"/><path class="cls-2" d="M134.31,192.71A32,32,0,0,1,121,180.58a34.42,34.42,0,0,1-4.71-18.17V101.79H133V161q0,9.74,5.72,15.64t16.13,5.91q10.47,0,16.13-5.91T176.64,161V101.79h16.72v60.62a34.93,34.93,0,0,1-4.65,18.14,31.52,31.52,0,0,1-13.3,12.16q-8.66,4.35-20.55,4.35T134.31,192.71Z" transform="translate(-32.93 -101.79)"/><path class="cls-2" d="M244.21,115.87H216.12V101.79H289v14.08h-28v79.57H244.21Z" transform="translate(-32.93 -101.79)"/><path class="cls-2" d="M329.79,192.71a31.92,31.92,0,0,1-13.36-12.13,34.33,34.33,0,0,1-4.72-18.17V101.79h16.78V161q0,9.74,5.72,15.64t16.13,5.91q10.47,0,16.12-5.91T372.12,161V101.79h16.71v60.62a34.83,34.83,0,0,1-4.65,18.14,31.49,31.49,0,0,1-13.29,12.16q-8.65,4.35-20.55,4.35T329.79,192.71Z" transform="translate(-32.93 -101.79)"/><path class="cls-2" d="M416.73,101.79h37.46a38.92,38.92,0,0,1,17.23,3.53,25.85,25.85,0,0,1,11.12,10.1,29.9,29.9,0,0,1,3.9,15.57v.13a29.14,29.14,0,0,1-4.78,16.62,25.89,25.89,0,0,1-12.91,10.12l20.49,37.58H470.12l-18.47-35.05H433.51v35.05H416.73Zm35.7,45.36q8,0,12.42-4.18t4.42-11.72v-.13q0-7.34-4.61-11.58t-12.55-4.25h-18.6v31.86Z" transform="translate(-32.93 -101.79)"/><path class="cls-2" d="M511.29,101.79H572v14.08h-44v25.25h41.55v13.5H528.06v26.74h44v14.08H511.29Z" transform="translate(-32.93 -101.79)"/></g></svg>