<svg id="Layer_1" data-name="Layer 1" xmlns="http://www.w3.org/2000/svg" xmlns:xlink="http://www.w3.org/1999/xlink" viewBox="0 0 841.89 595.28"><defs><style>.cls-1{opacity:0.3;}.cls-2{fill:#939292;}</style></defs><g class="cls-1"><path class="cls-2" d="M56,167.72h80.55v19h-58V224h53v18.35h-53v51.47H56Z"/><path class="cls-2" d="M192.48,290.15a43.1,43.1,0,0,1-18-16.34q-6.35-10.49-6.35-24.47V167.72h22.59V247.5q0,13.11,7.71,21.07t21.71,7.95q14.1,0,21.71-7.95t7.62-21.07V167.72H272v81.62q0,13.89-6.26,24.43a42.4,42.4,0,0,1-17.9,16.38Q236.18,296,220.15,296T192.48,290.15Z"/><path class="cls-2" d="M340.46,186.68H302.63v-19h98.06v19H363V293.82h-22.5Z"/><path class="cls-2" d="M455.69,290.15a43.07,43.07,0,0,1-18-16.34q-6.35-10.49-6.34-24.47V167.72h22.58V247.5q0,13.11,7.71,21.07t21.71,7.95q14.1,0,21.72-7.95t7.61-21.07V167.72h22.5v81.62q0,13.89-6.26,24.43A42.4,42.4,0,0,1,511,290.15Q499.38,296,483.35,296T455.69,290.15Z"/><path class="cls-2" d="M572.75,167.72h50.43q13.49,0,23.2,4.76a34.87,34.87,0,0,1,15,13.59q5.25,8.84,5.25,21v.18a39.26,39.26,0,0,1-6.44,22.37,34.83,34.83,0,0,1-17.38,13.63l27.58,50.6H644.63l-24.86-47.19H595.34v47.19H572.75Zm48.07,61.08q10.77,0,16.72-5.63t6-15.78v-.17q0-9.87-6.21-15.6t-16.9-5.72h-25v42.9Z"/><path class="cls-2" d="M700.06,167.72h81.78v19H722.65v34h56v18.17h-56v36h59.19v19H700.06Z"/></g><image width="3840" height="2160" transform="translate(-68.6 2.72) scale(0.24)" xlink:href="tesla-5937063.png"/></svg>